<svg width="86" height="61" fill="none" xmlns="http://www.w3.org/2000/svg"><path d="M7.59 31.46h.203c.824.014 1.56.02 2.209.02l1.276-8.53c1.23-8.211 3.715-12.324 7.456-12.338.743 0 1.391.115 1.945.345 1.459.594 2.188 1.857 2.188 3.788 0 .716-.088 1.466-.263 2.25-.622 2.822-2.229 5.76-4.822 8.812-1.635 1.932-3.16 3.357-4.579 4.275L13 31.48h2.087c.338 0 .642.068.912.203.5.256.75.682.75 1.276 0 .243-.061.48-.183.71-.31.5-.81.749-1.5.749h-2.491l-.952 6.686c3.538-2.688 5.43-4.14 5.673-4.356.54-.432 1.06-.648 1.56-.648.175 0 .357.06.547.182.391.27.587.615.587 1.033-.013.608-.385 1.236-1.114 1.884-1.432 1.189-4.046 3.242-7.84 6.16l-.973 6.726c-.203 1.35-.71 2.418-1.52 3.201-.905.85-2.02 1.276-3.343 1.276-1.229 0-2.316-.466-3.262-1.398C.993 54.232.52 53.18.52 52.004c0-1.135.263-2.073.79-2.816.31-.433.919-.993 1.824-1.682.013-.013.06-.047.141-.101.878-.662 2.513-1.891 4.903-3.688l1.398-9.299H7.591c-.122 0-.236-.007-.345-.02-.877-.108-1.316-.588-1.316-1.439 0-.202.027-.391.08-.567.23-.621.757-.932 1.58-.932zm11.184-17.788c-1.148.04-2.127.992-2.937 2.856-.703 1.648-1.317 4.356-1.844 8.125-.08.648-.142 1.08-.182 1.296.905-.864 1.843-1.972 2.816-3.322 2.188-3.026 3.282-5.585 3.282-7.68 0-.107-.027-.235-.081-.384-.203-.594-.554-.891-1.053-.891zM7.165 50.464l.345-2.472c-1.405 1.067-2.148 1.641-2.229 1.722-.972.716-1.465 1.405-1.479 2.067 0 .23.04.446.122.648.23.595.655.892 1.276.892.243 0 .473-.04.689-.122.662-.27 1.087-1.182 1.276-2.735zM41.977 35.168c0-.46.027-.946.081-1.46.284-2.309 1.013-4.362 2.188-6.158 1.432-2.202 3.154-3.303 5.167-3.303.702 0 1.384.129 2.046.385l1.641-11.67c.216-1.58.784-2.377 1.702-2.39.149 0 .297.013.446.04.621.149.932.736.932 1.763 0 .419-.29 2.796-.871 7.131-1.31 9.874-1.966 15.304-1.966 16.29 0 .621.129 1.202.385 1.742.378.81.885 1.216 1.52 1.216.121 0 .25-.014.385-.04.405-.082.992-.393 1.762-.933.757-.54 1.358-.81 1.803-.81.19 0 .365.067.527.202.325.27.486.615.486 1.034-.053.702-.58 1.438-1.58 2.208-1.215.864-2.505 1.297-3.87 1.297-1.688-.014-2.964-.865-3.829-2.553-.202.243-.432.48-.689.709-1.296 1.189-2.613 1.783-3.95 1.783-.851 0-1.587-.216-2.209-.649-1.404-.972-2.107-2.917-2.107-5.834zm7.213 1.377c.176-.256.392-.925.648-2.006.54-2.336.953-4.788 1.236-7.354a3.093 3.093 0 00-.972-.284c-.243 0-.493.034-.75.102-1.256.35-2.316 1.512-3.18 3.485-.77 1.769-1.156 3.545-1.156 5.328 0 .148.007.297.02.446.068 1.499.487 2.248 1.257 2.248.392-.013.885-.23 1.479-.648.635-.459 1.107-.898 1.418-1.317z" fill="#7AC2C2"/><path d="M61.487 25.96c-.02.391-.133 1.23-.337 2.518-.623 3.808-.96 6.178-1.01 7.108-.033.62.064 1.208.292 1.76.334.83.818 1.262 1.452 1.296.135.007.277.001.427-.018.396-.073.98-.36 1.75-.86.758-.5 1.359-.739 1.804-.715.189.01.374.088.556.233.363.29.532.657.509 1.102-.091.685-.663 1.385-1.716 2.1-1.286.797-2.611 1.158-3.973 1.086-1.147-.062-2.076-.51-2.79-1.347-1.067-1.274-1.53-3.233-1.39-5.877.05-.903.326-2.66.83-5.271.228-1.219.391-2.116.49-2.693l.06-.362c.287-1.337.876-1.982 1.767-1.934.148.008.296.03.443.064.612.182.89.785.836 1.81zm-2.023-5.424c.013-.242.08-.469.199-.679.298-.511.75-.751 1.357-.719.243.013.47.08.68.199.51.298.75.75.718 1.357a1.52 1.52 0 01-.199.68c-.298.511-.75.75-1.357.718a1.52 1.52 0 01-.68-.198c-.51-.298-.75-.75-.718-1.358z" fill="#7AC2C2"/><path d="M63.51 35.41c0-.458.026-.945.08-1.458.284-2.31 1.013-4.363 2.188-6.16 1.432-2.2 3.154-3.302 5.166-3.302.54 0 1.06.068 1.56.203 1.783.513 2.675 1.77 2.675 3.768 0 .15-.007.304-.02.466-.135 1.81-.946 3.33-2.432 4.559-1.458 1.216-3.153 1.823-5.085 1.823-.365 0-.722-.033-1.074-.1-.027.202-.04.485-.04.85 0 .784.135 1.391.405 1.824.365.553 1.114.877 2.249.972a6.8 6.8 0 001.479-.162c.85-.203 1.857-.682 3.019-1.439.756-.5 1.29-.75 1.6-.75.176 0 .358.055.547.163.433.256.649.628.649 1.114 0 .162-.034.338-.102.527-.364.878-1.459 1.709-3.282 2.492-1.688.73-3.174 1.094-4.457 1.094-.486 0-.939-.04-1.358-.122-2.512-.513-3.768-2.633-3.768-6.361zm6.503-7.739c-1.23.824-2.195 2.391-2.898 4.7.338.082.662.122.973.122 1.12 0 2.1-.344 2.938-1.033.931-.756 1.398-1.655 1.398-2.695 0-1.04-.331-1.566-.993-1.58-.473.014-.946.176-1.418.486zM78.759 40.478c0-.35.088-.675.263-.972.365-.594.885-.892 1.56-.892.351 0 .675.095.973.284.594.351.891.878.891 1.58 0 .338-.094.655-.284.953-.364.58-.891.87-1.58.87-.337 0-.662-.094-.972-.283-.568-.364-.851-.878-.851-1.54zm1.175-7.293l2.694-20.139c.082-.567.27-1.013.568-1.337a1.375 1.375 0 011.033-.446c.419 0 .743.102.972.304.311.27.466.669.466 1.195 0 .122-.006.244-.02.365l-2.39 19.977c-.068.513-.203.952-.406 1.317-.391.662-.884.992-1.479.992-.148 0-.29-.027-.425-.08-.675-.257-1.013-.973-1.013-2.148zM23.482 24.592c.472.013.918.06 1.337.142 2.08.445 3.356 2.066 3.829 4.862.257-.148.682-.425 1.276-.83.81-.554 1.425-.831 1.844-.831.203 0 .398.06.588.182.418.27.628.635.628 1.094-.014.46-.311.966-.892 1.52-.824.756-1.89 1.398-3.2 1.924-.014 2.107-.332 3.89-.953 5.349-1.013 2.377-2.674 3.566-4.984 3.566-.824 0-1.648-.264-2.472-.79-1.904-1.256-2.857-3.519-2.857-6.788 0-1.971.331-3.768.993-5.389 1.04-2.553 2.661-3.89 4.863-4.011zm2.532 8.59a8.781 8.781 0 01-1.5-.162c-1.782-.378-2.93-1.324-3.443-2.836-.352 1.134-.527 2.37-.527 3.707 0 .648.06 1.277.182 1.884.378 1.85 1.202 2.776 2.472 2.776.419 0 .797-.128 1.134-.385.986-.756 1.547-2.418 1.682-4.984zm-.304-2.755h.284c-.203-1.85-.689-2.783-1.459-2.796-.067 0-.135.007-.203.02-.297.108-.445.331-.445.669 0 .297.047.587.142.87.297.825.857 1.237 1.681 1.237z" fill="#7AC2C2"/><path d="M35.814 24.592c.473.013.919.06 1.337.142 2.08.445 3.357 2.066 3.83 4.862a23.97 23.97 0 001.276-.83c.81-.554 1.425-.831 1.843-.831.203 0 .399.06.588.182.419.27.628.635.628 1.094-.013.46-.31.966-.891 1.52-.824.756-1.891 1.398-3.201 1.924-.014 2.107-.331 3.89-.953 5.349-1.013 2.377-2.674 3.566-4.984 3.566-.824 0-1.648-.264-2.471-.79-1.905-1.256-2.857-3.519-2.857-6.788 0-1.971.33-3.768.993-5.389 1.04-2.553 2.66-3.89 4.862-4.011zm2.533 8.59a8.781 8.781 0 01-1.5-.162c-1.782-.378-2.93-1.324-3.444-2.836-.351 1.134-.527 2.37-.527 3.707 0 .648.061 1.277.183 1.884.378 1.85 1.202 2.776 2.472 2.776.418 0 .796-.128 1.134-.385.986-.756 1.547-2.418 1.682-4.984zm-.304-2.755h.283c-.202-1.85-.688-2.783-1.458-2.796-.068 0-.135.007-.203.02-.297.108-.446.331-.446.669 0 .297.048.587.142.87.297.825.858 1.237 1.682 1.237z" fill="#7AC2C2"/></svg>