<svg width="16" height="16" fill="none" xmlns="http://www.w3.org/2000/svg"><path d="M11.033 12.767l.235-.712-.327-.108-.295.177.387.643zm1.733-1.734l-.631-.404-.194.302.114.34.711-.238zm.867 2.592l-.235.713a.75.75 0 00.946-.95l-.71.237zm-2.987-1.5c-.767.46-2.031.75-3.08.75v1.5c1.242 0 2.794-.328 3.854-.966l-.774-1.285zm-3.08.75A5.315 5.315 0 012.25 7.563H.75a6.815 6.815 0 006.816 6.812v-1.5zM2.25 7.563A5.315 5.315 0 017.566 2.25V.75A6.815 6.815 0 00.75 7.563h1.5zM7.566 2.25a5.315 5.315 0 015.317 5.313h1.5A6.815 6.815 0 007.566.75v1.5zm5.317 5.313c0 1.118-.25 2.288-.748 3.066l1.263.809c.707-1.105.985-2.591.985-3.875h-1.5zm-2.085 5.916l2.6.859.47-1.425-2.6-.858-.47 1.424zm3.546-.091l-.866-2.592-1.423.475.867 2.592 1.422-.475z" fill="#272342"/><circle cx="4.5" cy="7.5" r="1" fill="#272342"/><circle cx="7.5" cy="7.5" r="1" fill="#272342"/><circle cx="10.5" cy="7.5" r="1" fill="#272342"/></svg>