<svg width="32" height="32" fill="none" xmlns="http://www.w3.org/2000/svg"><path d="M24 12c0-4.7-4.1-8.5-8.9-7.9-3.5.4-6.4 3.2-7 6.7-.4 2.6.5 5.1 2.1 6.8 1.2 1.2 1.8 2.8 1.8 4.5h8c0-1.6.6-3.3 1.7-4.4 1.4-1.6 2.3-3.5 2.3-5.7zM20 25h-8M19 25.5c0 1.7-1.3 3-3 3s-3-1.3-3-3" stroke="#7AC2C2" stroke-width="2" stroke-miterlimit="10" stroke-linecap="round" stroke-linejoin="round"/><path d="M18.5 15L16 22l-4-11c2.4 1.8 5.6 1.8 8 0" stroke="#7AC2C2" stroke-width="2" stroke-miterlimit="10" stroke-linecap="round" stroke-linejoin="round"/></svg>