<svg width="16" height="16" fill="none" xmlns="http://www.w3.org/2000/svg"><path fill-rule="evenodd" clip-rule="evenodd" d="M12.262 14.463a.18.18 0 00.28-.15V2.87c0-.797-.646-1.444-1.443-1.444H4.653c-.798 0-1.444.647-1.444 1.444v11.441c0 .145.16.23.28.15l3.987-2.657a.722.722 0 01.8 0l3.986 2.658z" fill="#fff"/><path d="M7.476 11.805l.416.624-.416-.624zm.8 0l-.416.624.416-.624zM3.49 14.463l.416.624-.416-.624zm8.772 0l-.416.624.416-.624zm1.03-.15V2.87h-1.5v11.441h1.5zM2.46 2.87v11.441h1.5V2.871h-1.5zm1.447 12.216l3.986-2.658-.832-1.248-3.986 2.658.832 1.248zm3.954-2.658l3.986 2.658.832-1.248-3.986-2.658-.832 1.248zM11.1.677H4.652v1.5h6.446v-1.5zM7.891 12.43a.028.028 0 01-.032 0l.832-1.248a1.471 1.471 0 00-1.632 0l.832 1.248zm-5.433 1.883a.93.93 0 001.447.775l-.832-1.248a.57.57 0 01.885.473h-1.5zm1.5-11.441c0-.383.31-.694.694-.694v-1.5a2.193 2.193 0 00-2.194 2.194h1.5zm9.334 0A2.193 2.193 0 0011.099.677v1.5c.383 0 .694.31.694.694h1.5zm-1.5 11.441a.57.57 0 01.885-.473l-.832 1.248a.93.93 0 001.447-.775h-1.5z" fill="#272342"/></svg>