<svg width="20" height="20" fill="none" xmlns="http://www.w3.org/2000/svg"><path d="M14 5.063C14.188 5 14.438 5 14.688 5c1.874 0 3.437 1.563 3.437 3.438 0 1.874-1.563 3.437-3.438 3.437L15 17.5H5l.313-5.625c-1.875 0-3.438-1.563-3.438-3.438C1.875 6.563 3.438 5 5.313 5c.25 0 .5 0 .687.063" stroke="#272342" stroke-width="1.25" stroke-miterlimit="10" stroke-linecap="round" stroke-linejoin="round"/><path d="M14.375 6.875A4.348 4.348 0 0010 2.5a4.348 4.348 0 00-4.375 4.375M10 13.125V15M7.813 13.125L7.5 14.813M12.188 13.125l.312 1.688" stroke="#272342" stroke-width="1.25" stroke-miterlimit="10" stroke-linecap="round" stroke-linejoin="round"/></svg>