<svg width="18" height="18" fill="none" xmlns="http://www.w3.org/2000/svg"><path d="M5.857 1.5c-2.036 0-3.643 1.607-3.643 3.59v7.66a9.198 9.198 0 016.053-2.25h2.143c1.982 0 3.643-1.607 3.643-3.59V5.09a3.683 3.683 0 00-3.696-3.59h-4.5z" stroke="#fff" stroke-width="1.071" stroke-miterlimit="10" stroke-linecap="round" stroke-linejoin="round"/><path d="M9.072 5.25c-2.036 0-3.643 1.607-3.643 3.59v7.66a9.198 9.198 0 016.053-2.25h2.143c1.982 0 3.643-1.607 3.643-3.59V8.84a3.683 3.683 0 00-3.696-3.59h-4.5z" fill="#fff" stroke="#fff" stroke-width="1.071" stroke-miterlimit="10" stroke-linecap="round" stroke-linejoin="round"/><rect x="7.571" y="9" width="1.786" height="1.786" rx=".893" fill="#272342"/><rect x="10.429" y="9" width="1.786" height="1.786" rx=".893" fill="#272342"/><rect x="13.286" y="9" width="1.786" height="1.786" rx=".893" fill="#272342"/></svg>