<svg width="96" height="67" fill="none" xmlns="http://www.w3.org/2000/svg"><path d="M8.151 35.223h.226c.917.011 1.736.016 2.458.013l1.387-9.498c1.336-9.145 4.086-13.733 8.25-13.762.827-.003 1.55.122 2.166.375 1.626.656 2.443 2.06 2.45 4.209.003.797-.091 1.631-.284 2.504-.68 3.144-2.458 6.42-5.332 9.828-1.812 2.156-3.505 3.748-5.08 4.776l-.22 1.557 2.323-.008c.376-.002.714.072 1.015.221.557.284.837.757.84 1.418 0 .27-.066.534-.2.79-.344.558-.9.838-1.666.84l-2.774.01-1.034 7.445c3.929-3.005 6.027-4.629 6.297-4.87.6-.483 1.178-.726 1.734-.728.195 0 .399.066.61.201.437.3.656.682.658 1.148-.013.676-.424 1.377-1.233 2.101-1.59 1.329-4.49 3.624-8.703 6.886l-1.056 7.49c-.22 1.505-.78 2.694-1.679 3.57-1.004.95-2.242 1.428-3.716 1.433-1.368.005-2.58-.51-3.636-1.543C.896 60.595.366 59.425.362 58.117c-.005-1.263.285-2.309.868-3.138.344-.482 1.018-1.108 2.023-1.879.015-.015.067-.053.157-.113.975-.74 2.79-2.114 5.443-4.123l1.52-10.356-2.21.008c-.136 0-.263-.007-.384-.022-.977-.116-1.468-.648-1.471-1.596 0-.225.028-.436.088-.631.253-.693.838-1.04 1.755-1.044zM20.53 15.381c-1.277.05-2.364 1.113-3.258 3.19-.776 1.837-1.449 4.854-2.02 9.05a29.869 29.869 0 01-.198 1.444c1.003-.965 2.044-2.202 3.121-3.709 2.424-3.376 3.631-6.229 3.623-8.56 0-.12-.03-.262-.092-.427-.227-.66-.62-.99-1.176-.988zM7.752 56.377l.374-2.753c-1.56 1.194-2.384 1.835-2.474 1.926-1.08.8-1.626 1.57-1.638 2.306 0 .255.047.496.138.72.257.661.732.99 1.424.988.27 0 .526-.047.766-.138.735-.303 1.205-1.32 1.41-3.05zM46.418 39.331c0-.511.03-1.052.09-1.624.316-2.57 1.128-4.855 2.436-6.855 1.594-2.45 3.51-3.676 5.75-3.676.782 0 1.541.143 2.278.429l1.826-12.989c.241-1.759.872-2.646 1.895-2.66.165 0 .33.014.496.044.691.165 1.037.82 1.037 1.962 0 .466-.323 3.112-.97 7.938-1.458 10.99-2.187 17.033-2.187 18.13 0 .692.143 1.338.428 1.94.422.901.985 1.352 1.692 1.352.135 0 .278-.015.428-.045.451-.09 1.105-.436 1.962-1.037.842-.601 1.511-.902 2.007-.902.21 0 .406.075.586.225.361.301.542.684.542 1.15-.06.782-.647 1.602-1.76 2.459-1.352.962-2.788 1.443-4.306 1.443-1.88-.015-3.3-.962-4.262-2.842-.226.271-.482.534-.767.79-1.443 1.323-2.91 1.984-4.397 1.984-.947 0-1.767-.24-2.458-.722-1.564-1.082-2.346-3.247-2.346-6.494zm8.028 1.533c.196-.285.436-1.03.722-2.232.601-2.6 1.06-5.33 1.376-8.186a3.444 3.444 0 00-1.083-.316c-.27 0-.549.038-.834.113-1.398.391-2.579 1.684-3.54 3.879-.858 1.97-1.286 3.946-1.286 5.93 0 .166.008.331.023.497.075 1.668.54 2.503 1.398 2.503.436-.015.984-.256 1.646-.722.706-.511 1.232-1 1.578-1.466z" fill="#272342"/><path d="M68.113 29.082c-.023.436-.148 1.37-.375 2.803-.694 4.239-1.068 6.876-1.123 7.912a4.46 4.46 0 00.324 1.959c.372.923.91 1.404 1.617 1.441.15.008.308.002.475-.02.44-.081 1.09-.4 1.948-.956.843-.558 1.512-.823 2.007-.796.21.01.416.097.618.258.405.323.594.732.567 1.228-.1.762-.737 1.541-1.909 2.336-1.432.887-2.907 1.29-4.423 1.21-1.276-.07-2.31-.569-3.104-1.5-1.188-1.418-1.704-3.598-1.547-6.54.054-1.006.362-2.962.924-5.868.253-1.356.434-2.355.544-2.997l.066-.403c.321-1.488.977-2.206 1.967-2.153.166.01.33.033.493.072.682.202.992.873.931 2.014zm-2.251-6.037a1.69 1.69 0 01.221-.756c.332-.569.835-.836 1.51-.8.27.015.523.089.757.222.569.331.836.835.8 1.51a1.69 1.69 0 01-.222.756c-.331.57-.835.836-1.51.8a1.69 1.69 0 01-.756-.221c-.57-.332-.836-.835-.8-1.51z" fill="#272342"/><path d="M70.383 39.602c0-.512.03-1.053.09-1.624.316-2.57 1.127-4.856 2.435-6.855 1.594-2.45 3.51-3.676 5.75-3.676.602 0 1.18.075 1.737.226 1.984.57 2.977 1.969 2.977 4.194 0 .165-.008.338-.023.518-.15 2.015-1.052 3.706-2.706 5.074-1.624 1.353-3.51 2.03-5.66 2.03a6.32 6.32 0 01-1.195-.113c-.03.226-.045.541-.045.947 0 .872.15 1.549.45 2.03.407.616 1.241.977 2.504 1.082.556 0 1.105-.06 1.646-.18.947-.226 2.067-.76 3.36-1.601.842-.557 1.436-.835 1.781-.835.196 0 .399.06.61.18.48.286.72.7.72 1.24 0 .181-.037.377-.112.587-.406.977-1.623 1.902-3.653 2.774-1.88.812-3.533 1.218-4.961 1.218a7.953 7.953 0 01-1.51-.136c-2.797-.57-4.195-2.931-4.195-7.08zm7.238-8.615c-1.368.917-2.443 2.661-3.224 5.232.375.09.736.135 1.082.135 1.248 0 2.338-.383 3.27-1.15 1.037-.842 1.556-1.841 1.556-2.999 0-1.157-.369-1.744-1.105-1.759-.526.015-1.053.196-1.579.541zM87.356 45.242c0-.39.098-.752.293-1.082.406-.662.985-.992 1.736-.992.391 0 .752.105 1.083.315.661.391.992.977.992 1.76 0 .375-.105.728-.316 1.059-.406.646-.992.97-1.759.97-.375 0-.736-.106-1.082-.316-.631-.406-.947-.977-.947-1.714zm1.308-8.118l2.999-22.415c.09-.631.3-1.127.631-1.488a1.53 1.53 0 011.15-.496c.466 0 .827.113 1.083.338.346.3.519.744.519 1.33 0 .136-.008.271-.023.406l-2.661 22.235c-.075.571-.225 1.06-.451 1.466-.436.736-.985 1.105-1.646 1.105-.165 0-.323-.03-.474-.09-.751-.286-1.127-1.083-1.127-2.39zM25.831 27.56a9.212 9.212 0 011.489.158c2.315.496 3.735 2.3 4.261 5.412.286-.166.76-.474 1.421-.925.902-.616 1.586-.924 2.052-.924.226 0 .444.067.654.203.466.3.7.706.7 1.217-.016.511-.346 1.075-.993 1.691-.917.842-2.105 1.556-3.563 2.143-.015 2.345-.368 4.33-1.06 5.953-1.127 2.646-2.976 3.969-5.547 3.969-.917 0-1.834-.293-2.751-.88-2.12-1.398-3.18-3.916-3.18-7.554 0-2.195.369-4.194 1.105-5.998 1.158-2.842 2.962-4.33 5.412-4.465zm2.819 9.561a9.77 9.77 0 01-1.669-.18c-1.984-.421-3.262-1.474-3.833-3.157-.391 1.262-.587 2.638-.587 4.126 0 .722.068 1.421.203 2.098.421 2.06 1.338 3.089 2.752 3.089.466 0 .887-.143 1.262-.429 1.098-.841 1.722-2.69 1.872-5.547zm-.338-3.067h.315c-.225-2.06-.766-3.097-1.623-3.112-.075 0-.15.008-.226.023-.33.12-.496.368-.496.744 0 .33.053.654.158.97.33.917.955 1.375 1.872 1.375z" fill="#272342"/><path d="M39.559 27.56a9.212 9.212 0 011.488.158c2.315.496 3.736 2.3 4.262 5.412.286-.166.76-.474 1.42-.925.903-.616 1.587-.924 2.053-.924.225 0 .443.067.654.203.466.3.699.706.699 1.217-.015.511-.346 1.075-.992 1.691-.918.842-2.105 1.556-3.563 2.143-.015 2.345-.369 4.33-1.06 5.953-1.128 2.646-2.977 3.969-5.548 3.969-.917 0-1.834-.293-2.75-.88-2.12-1.398-3.18-3.916-3.18-7.554 0-2.195.368-4.194 1.105-5.998 1.157-2.842 2.961-4.33 5.412-4.465zm2.819 9.561a9.77 9.77 0 01-1.67-.18c-1.984-.421-3.261-1.474-3.833-3.157-.39 1.262-.586 2.638-.586 4.126 0 .722.068 1.421.203 2.098.42 2.06 1.338 3.089 2.751 3.089.466 0 .887-.143 1.263-.429 1.097-.841 1.721-2.69 1.871-5.547zm-.339-3.067h.316c-.225-2.06-.767-3.097-1.624-3.112-.075 0-.15.008-.225.023-.33.12-.496.368-.496.744 0 .33.052.654.158.97.33.917.954 1.375 1.871 1.375z" fill="#272342"/><path d="M29.258 60.431a.218.218 0 01-.161-.066.218.218 0 01-.066-.16v-6.143c0-.07.019-.126.057-.17a.23.23 0 01.17-.066h.736a.3.3 0 01.273.16l2.699 4.19v-4.114c0-.07.019-.126.057-.17a.23.23 0 01.17-.066h.811a.23.23 0 01.17.066.23.23 0 01.066.17v6.133a.23.23 0 01-.066.17.218.218 0 01-.16.066h-.746a.308.308 0 01-.283-.16l-2.69-4.096v4.03a.218.218 0 01-.066.16.2.2 0 01-.16.066h-.811zm6.294 0a.218.218 0 01-.16-.066.218.218 0 01-.067-.16v-6.143c0-.07.02-.126.057-.17a.23.23 0 01.17-.066h4.161a.23.23 0 01.17.066.23.23 0 01.066.17v.632a.23.23 0 01-.066.17.252.252 0 01-.17.056h-3.095v1.652h2.888a.23.23 0 01.17.066.23.23 0 01.066.17v.594a.23.23 0 01-.066.17.252.252 0 01-.17.057h-2.888v1.708h3.17a.23.23 0 01.17.066.2.2 0 01.067.16v.642a.23.23 0 01-.066.17.252.252 0 01-.17.056h-4.237zm6.955 0a.218.218 0 01-.16-.066.218.218 0 01-.066-.16v-5.2h-1.746a.219.219 0 01-.16-.066.23.23 0 01-.067-.17v-.707c0-.07.02-.126.057-.17a.23.23 0 01.17-.066h4.822a.23.23 0 01.17.066.23.23 0 01.066.17v.707a.23.23 0 01-.066.17.23.23 0 01-.17.066H43.62v5.2a.218.218 0 01-.066.16.2.2 0 01-.16.066h-.888zm4.75 0c-.181 0-.295-.094-.339-.283L45.805 54.1l-.01-.075a.192.192 0 01.198-.198h.85c.081 0 .141.015.179.047.038.025.063.072.075.141l.784 4.247.84-2.737c.063-.157.166-.236.311-.236h.519c.082 0 .148.026.198.076.05.044.085.097.104.16l.85 2.737.773-4.247c.019-.125.107-.188.264-.188h.85a.192.192 0 01.189.198.244.244 0 01-.01.075l-1.114 6.05a.31.31 0 01-.113.207.328.328 0 01-.226.075h-.642a.343.343 0 01-.217-.066.369.369 0 01-.113-.17l-1.057-3.133-1.057 3.133c-.05.158-.16.236-.33.236h-.642zm8.716.095c-.861 0-1.531-.217-2.01-.652-.478-.434-.73-1.078-.755-1.934a25.22 25.22 0 01-.009-.802c0-.359.003-.63.01-.812.025-.836.283-1.478.773-1.925.491-.446 1.155-.67 1.991-.67.83 0 1.491.224 1.982.67.497.447.758 1.089.783 1.925.013.365.02.636.02.812 0 .17-.007.437-.02.802-.025.856-.28 1.5-.764 1.934-.478.435-1.145.652-2 .652zm0-1.095c.422 0 .755-.126 1-.377.246-.252.378-.639.397-1.161.013-.378.019-.632.019-.764 0-.145-.006-.4-.019-.765-.019-.516-.154-.9-.406-1.151-.251-.258-.582-.387-.99-.387-.416 0-.75.129-1 .387-.252.252-.385.635-.397 1.151-.006.183-.01.437-.01.765 0 .32.004.575.01.764.012.516.141.903.387 1.16.251.252.588.378 1.01.378zm3.863 1a.218.218 0 01-.16-.066.218.218 0 01-.067-.16v-6.143c0-.07.02-.126.057-.17a.23.23 0 01.17-.066h2.444c.774 0 1.378.179 1.812.538.44.358.66.868.66 1.528 0 .46-.11.846-.33 1.161-.22.308-.528.532-.925.67l1.369 2.406a.235.235 0 01.028.104.18.18 0 01-.066.142.181.181 0 01-.132.056h-.868c-.101 0-.18-.022-.236-.066a.765.765 0 01-.151-.189l-1.208-2.236H60.94v2.265a.218.218 0 01-.066.16.23.23 0 01-.17.066h-.868zm2.416-3.567c.377 0 .66-.081.849-.245.189-.17.283-.415.283-.736s-.094-.566-.283-.736c-.189-.176-.472-.264-.85-.264H60.94v1.981h1.312zm3.565 3.567a.218.218 0 01-.16-.066.218.218 0 01-.066-.16v-6.143c0-.07.019-.126.056-.17a.23.23 0 01.17-.066h.85a.23.23 0 01.17.066.23.23 0 01.065.17v2.208l2.105-2.275a.457.457 0 01.368-.17h.962c.05 0 .095.02.132.057a.179.179 0 01.066.142.155.155 0 01-.047.113l-2.567 2.85 2.756 3.123a.25.25 0 01.038.123.192.192 0 01-.057.142.181.181 0 01-.132.056h-.99c-.133 0-.227-.025-.284-.075l-.094-.095-2.256-2.49v2.434a.218.218 0 01-.066.16.23.23 0 01-.17.066h-.849z" fill="#7AC2C2"/></svg>