<svg width="86" height="61" viewBox="0 0 86 61" fill="none" xmlns="http://www.w3.org/2000/svg">
<path d="M7.59089 31.46C7.60439 31.46 7.67193 31.46 7.79349 31.46C8.6174 31.4735 9.35352 31.4803 10.0018 31.4803L11.2782 22.9507C12.5074 14.7386 14.9926 10.6258 18.734 10.6123C19.4769 10.6123 20.1252 10.7271 20.679 10.9567C22.1377 11.551 22.8671 12.8139 22.8671 14.7453C22.8671 15.4612 22.7793 16.2108 22.6037 16.9942C21.9824 19.8171 20.3751 22.7549 17.7818 25.8074C16.1474 27.7389 14.6212 29.1638 13.203 30.0823L13.0004 31.4803H15.0872C15.4248 31.4803 15.7287 31.5478 15.9989 31.6829C16.4986 31.9395 16.7485 32.365 16.7485 32.9593C16.7485 33.2024 16.6877 33.4387 16.5661 33.6684C16.2555 34.1681 15.7557 34.418 15.0669 34.418H12.5749L11.6227 41.1038C15.1614 38.416 17.0524 36.964 17.2955 36.7479C17.8358 36.3157 18.3558 36.0996 18.8556 36.0996C19.0311 36.0996 19.2135 36.1604 19.4026 36.2819C19.7943 36.5521 19.9901 36.8965 19.9901 37.3152C19.9766 37.923 19.6052 38.5511 18.8758 39.1994C17.4441 40.388 14.8305 42.441 11.0351 45.3585L10.0626 52.0849C9.86003 53.4355 9.35352 54.5026 8.54312 55.286C7.63816 56.1369 6.52385 56.5624 5.20018 56.5624C3.97107 56.5624 2.88377 56.0964 1.93829 55.1644C0.992819 54.2324 0.520082 53.1789 0.520082 52.0038C0.520082 50.8693 0.783464 49.9305 1.31023 49.1877C1.62089 48.7554 2.22869 48.1949 3.13365 47.5061C3.14715 47.4926 3.19443 47.4588 3.27547 47.4048C4.15341 46.7429 5.78773 45.5138 8.17843 43.7174L9.57639 34.418H7.59089C7.46933 34.418 7.35452 34.4112 7.24646 34.3977C6.36852 34.2897 5.92955 33.8102 5.92955 32.9593C5.92955 32.7566 5.95657 32.5676 6.01059 32.392C6.24021 31.7707 6.76697 31.46 7.59089 31.46ZM18.7745 13.6716C17.6264 13.7121 16.6472 14.6643 15.8368 16.5282C15.1344 18.1761 14.5199 20.8842 13.9931 24.6526C13.9121 25.3009 13.8513 25.7331 13.8108 25.9492C14.7157 25.0848 15.6544 23.9772 16.6269 22.6266C18.815 19.601 19.9091 17.0415 19.9091 14.9479C19.9091 14.8399 19.8821 14.7116 19.828 14.563C19.6254 13.9687 19.2743 13.6716 18.7745 13.6716ZM7.16542 50.4641C7.16542 50.4641 7.28023 49.6401 7.50985 47.9923C6.10514 49.0593 5.36227 49.6334 5.28123 49.7144C4.30874 50.4303 3.81574 51.1191 3.80223 51.781C3.80223 52.0106 3.84275 52.2267 3.92379 52.4293C4.15341 53.0236 4.57887 53.3207 5.20018 53.3207C5.44331 53.3207 5.67292 53.2802 5.88903 53.1992C6.55086 52.929 6.97633 52.0173 7.16542 50.4641Z" fill="#7AC2C2"/>
<path d="M41.9774 35.1676C41.9774 34.7084 42.0044 34.2221 42.0584 33.7089C42.3421 31.3992 43.0714 29.3462 44.2465 27.5498C45.6782 25.3482 47.4003 24.2474 49.4129 24.2474C50.1152 24.2474 50.7973 24.3757 51.4591 24.6323L53.1002 12.9624C53.3163 11.3822 53.8836 10.5853 54.8021 10.5717C54.9506 10.5717 55.0992 10.5853 55.2478 10.6123C55.8691 10.7608 56.1798 11.3484 56.1798 12.3749C56.1798 12.7936 55.8894 15.1708 55.3086 19.5065C53.9984 29.38 53.3433 34.8097 53.3433 35.7957C53.3433 36.417 53.4716 36.9978 53.7283 37.5381C54.1065 38.3485 54.613 38.7537 55.2478 38.7537C55.3694 38.7537 55.4977 38.7402 55.6327 38.7131C56.0379 38.6321 56.6255 38.3214 57.3954 37.7812C58.1518 37.2409 58.7528 36.9708 59.1985 36.9708C59.3876 36.9708 59.5632 37.0383 59.7253 37.1734C60.0495 37.4435 60.2115 37.7879 60.2115 38.2066C60.1575 38.909 59.6307 39.6451 58.6312 40.415C57.4156 41.2794 56.1257 41.7117 54.7615 41.7117C53.0732 41.6981 51.7968 40.8472 50.9324 39.1589C50.7298 39.402 50.5002 39.6384 50.2435 39.868C48.9469 41.0566 47.63 41.6509 46.2928 41.6509C45.4419 41.6509 44.7057 41.4348 44.0844 41.0025C42.6797 40.0301 41.9774 38.0851 41.9774 35.1676ZM49.19 36.5453C49.3656 36.2887 49.5817 35.6201 49.8383 34.5395C50.3786 32.2029 50.7905 29.7514 51.0742 27.1851C50.7635 27.0365 50.4394 26.942 50.1017 26.9015C49.8586 26.9015 49.6087 26.9352 49.3521 27.0028C48.0959 27.3539 47.0357 28.5155 46.1712 30.4875C45.4013 32.2569 45.0164 34.033 45.0164 35.8159C45.0164 35.9645 45.0231 36.1131 45.0367 36.2617C45.1042 37.7609 45.5229 38.5105 46.2928 38.5105C46.6845 38.497 47.1775 38.2809 47.7718 37.8622C48.4066 37.403 48.8793 36.964 49.19 36.5453Z" fill="#7AC2C2"/>
<path d="M61.487 25.9602C61.4661 26.3513 61.3536 27.1907 61.1495 28.4783C60.5265 32.2864 60.1902 34.6557 60.1404 35.5864C60.1072 36.2068 60.2043 36.7936 60.4317 37.3468C60.7661 38.1763 61.2503 38.6079 61.8842 38.6418C62.019 38.6491 62.1614 38.6431 62.3112 38.6241C62.7074 38.5506 63.2908 38.2639 64.0615 37.7641C64.8186 37.2636 65.4198 37.0252 65.8649 37.049C66.0537 37.0591 66.2389 37.1366 66.4205 37.2816C66.7837 37.5715 66.9535 37.9391 66.9297 38.3841C66.8389 39.0691 66.2672 39.769 65.2145 40.4837C63.9275 41.2805 62.6029 41.6425 61.2407 41.5696C60.0942 41.5083 59.1646 41.0596 58.4519 40.2234C57.3838 38.949 56.9205 36.99 57.0619 34.3464C57.1102 33.4428 57.3868 31.6856 57.8916 29.075C58.1191 27.8563 58.282 26.9588 58.3805 26.3824C58.4005 26.2618 58.4205 26.1411 58.4404 26.0204C58.7284 24.6832 59.3174 24.0384 60.2076 24.086C60.356 24.094 60.5036 24.1154 60.6505 24.1503C61.263 24.3318 61.5418 24.9351 61.487 25.9602ZM59.4641 20.5363C59.4771 20.2935 59.5433 20.0671 59.6628 19.857C59.9606 19.3455 60.4131 19.1059 61.02 19.1383C61.2628 19.1513 61.4892 19.2175 61.6992 19.337C62.2108 19.6349 62.4503 20.0873 62.4179 20.6942C62.4049 20.937 62.3387 21.1634 62.2193 21.3734C61.9214 21.885 61.469 22.1246 60.862 22.0921C60.6193 22.0791 60.3929 22.0129 60.1828 21.8935C59.6712 21.5956 59.4317 21.1432 59.4641 20.5363Z" fill="#7AC2C2"/>
<path d="M63.5091 35.4107C63.5091 34.9515 63.5361 34.4653 63.5901 33.952C63.8737 31.6423 64.6031 29.5893 65.7782 27.7929C67.2099 25.5913 68.932 24.4905 70.9445 24.4905C71.4848 24.4905 72.0048 24.558 72.5046 24.6931C74.2875 25.2064 75.1789 26.4625 75.1789 28.4615C75.1789 28.6101 75.1722 28.7654 75.1587 28.9275C75.0236 30.7374 74.2132 32.2569 72.7274 33.486C71.2687 34.7016 69.5736 35.3094 67.6421 35.3094C67.2774 35.3094 66.9195 35.2757 66.5683 35.2081C66.5413 35.4107 66.5278 35.6944 66.5278 36.0591C66.5278 36.8425 66.6629 37.4503 66.933 37.8825C67.2977 38.4363 68.0473 38.7604 69.1819 38.855C69.6817 38.855 70.1747 38.8009 70.6609 38.6929C71.5118 38.4903 72.5181 38.0108 73.6797 37.2544C74.436 36.7547 74.9696 36.5048 75.2802 36.5048C75.4558 36.5048 75.6381 36.5588 75.8272 36.6669C76.2595 36.9235 76.4756 37.2949 76.4756 37.7812C76.4756 37.9433 76.4418 38.1188 76.3743 38.3079C76.0096 39.1859 74.9155 40.0166 73.0921 40.7999C71.4038 41.5293 69.918 41.894 68.6349 41.894C68.1486 41.894 67.6962 41.8535 67.2774 41.7724C64.7652 41.2592 63.5091 39.1386 63.5091 35.4107ZM70.0126 27.6713C68.7835 28.4953 67.8177 30.062 67.1154 32.3717C67.453 32.4527 67.7772 32.4933 68.0879 32.4933C69.2089 32.4933 70.1882 32.1488 71.0256 31.46C71.9575 30.7036 72.4235 29.8054 72.4235 28.7654C72.4235 27.7254 72.0926 27.1986 71.4308 27.1851C70.958 27.1986 70.4853 27.3607 70.0126 27.6713Z" fill="#7AC2C2"/>
<path d="M78.7587 40.4785C78.7587 40.1273 78.8465 39.8031 79.0221 39.506C79.3868 38.9117 79.9068 38.6145 80.5821 38.6145C80.9333 38.6145 81.2575 38.7091 81.5546 38.8982C82.1489 39.2493 82.4461 39.7761 82.4461 40.4785C82.4461 40.8161 82.3515 41.1335 82.1624 41.4307C81.7977 42.0115 81.271 42.3019 80.5821 42.3019C80.2445 42.3019 79.9203 42.2073 79.6096 42.0182C79.0424 41.6536 78.7587 41.1403 78.7587 40.4785ZM79.9338 33.1848C79.9338 33.1848 80.832 26.4719 82.6284 13.0462C82.7095 12.4789 82.8986 12.0332 83.1957 11.709C83.4793 11.4118 83.8238 11.2633 84.229 11.2633C84.6477 11.2633 84.9718 11.3646 85.2015 11.5672C85.5121 11.8373 85.6674 12.2358 85.6674 12.7625C85.6674 12.8841 85.6607 13.0056 85.6472 13.1272L83.2565 33.1038C83.1889 33.617 83.0539 34.056 82.8513 34.4207C82.4596 35.0825 81.9666 35.4134 81.3723 35.4134C81.2237 35.4134 81.0819 35.3864 80.9468 35.3324C80.2715 35.0757 79.9338 34.3599 79.9338 33.1848Z" fill="#7AC2C2"/>
<path d="M23.4816 24.5918C23.9543 24.6053 24.4001 24.6526 24.8188 24.7336C26.8988 25.1793 28.1752 26.8002 28.6479 29.5961C28.9046 29.4475 29.33 29.1706 29.9243 28.7654C30.7347 28.2116 31.3493 27.9347 31.768 27.9347C31.9706 27.9347 32.1665 27.9955 32.3556 28.1171C32.7743 28.3872 32.9836 28.7519 32.9836 29.2111C32.9701 29.6703 32.673 30.1769 32.0922 30.7306C31.2683 31.487 30.2012 32.1286 28.8911 32.6553C28.8776 34.7624 28.5601 36.5453 27.9388 38.004C26.9258 40.3812 25.2645 41.5698 22.9548 41.5698C22.1309 41.5698 21.307 41.3064 20.4831 40.7797C18.5786 39.5236 17.6264 37.2612 17.6264 33.9925C17.6264 32.0205 17.9573 30.2241 18.6191 28.6033C19.6592 26.0505 21.28 24.7134 23.4816 24.5918ZM26.0141 33.1821C25.4874 33.1686 24.9876 33.1146 24.5149 33.02C22.732 32.6418 21.5839 31.6964 21.0706 30.1836C20.7195 31.3182 20.5439 32.554 20.5439 33.8912C20.5439 34.5395 20.6046 35.1676 20.7262 35.7754C21.1044 37.6258 21.9283 38.5511 23.198 38.5511C23.6167 38.5511 23.9949 38.4227 24.3325 38.1661C25.3185 37.4097 25.879 35.7484 26.0141 33.1821ZM25.7102 30.4267C25.7102 30.4267 25.8048 30.4267 25.9939 30.4267C25.7913 28.5763 25.305 27.6443 24.5351 27.6308C24.4676 27.6308 24.4001 27.6376 24.3325 27.6511C24.0354 27.7591 23.8868 27.982 23.8868 28.3197C23.8868 28.6168 23.9341 28.9072 24.0286 29.1909C24.3258 30.0148 24.8863 30.4267 25.7102 30.4267Z" fill="#7AC2C2"/>
<path d="M35.8141 24.5918C36.2868 24.6053 36.7326 24.6526 37.1513 24.7336C39.2313 25.1793 40.5077 26.8002 40.9805 29.5961C41.2371 29.4475 41.6626 29.1706 42.2569 28.7654C43.0673 28.2116 43.6818 27.9347 44.1005 27.9347C44.3031 27.9347 44.499 27.9955 44.6881 28.1171C45.1068 28.3872 45.3161 28.7519 45.3161 29.2111C45.3026 29.6703 45.0055 30.1769 44.4247 30.7306C43.6008 31.487 42.5337 32.1286 41.2236 32.6553C41.2101 34.7624 40.8927 36.5453 40.2714 38.004C39.2583 40.3812 37.597 41.5698 35.2873 41.5698C34.4634 41.5698 33.6395 41.3064 32.8156 40.7797C30.9111 39.5236 29.9589 37.2612 29.9589 33.9925C29.9589 32.0205 30.2898 30.2241 30.9517 28.6033C31.9917 26.0505 33.6125 24.7134 35.8141 24.5918ZM38.3466 33.1821C37.8199 33.1686 37.3201 33.1146 36.8474 33.02C35.0645 32.6418 33.9164 31.6964 33.4031 30.1836C33.052 31.3182 32.8764 32.554 32.8764 33.8912C32.8764 34.5395 32.9372 35.1676 33.0587 35.7754C33.4369 37.6258 34.2608 38.5511 35.5305 38.5511C35.9492 38.5511 36.3274 38.4227 36.665 38.1661C37.651 37.4097 38.2116 35.7484 38.3466 33.1821ZM38.0427 30.4267C38.0427 30.4267 38.1373 30.4267 38.3264 30.4267C38.1238 28.5763 37.6375 27.6443 36.8676 27.6308C36.8001 27.6308 36.7326 27.6376 36.665 27.6511C36.3679 27.7591 36.2193 27.982 36.2193 28.3197C36.2193 28.6168 36.2666 28.9072 36.3611 29.1909C36.6583 30.0148 37.2188 30.4267 38.0427 30.4267Z" fill="#7AC2C2"/>
</svg>
