<svg width="20" height="20" viewBox="0 0 20 20" fill="none" xmlns="http://www.w3.org/2000/svg">
<path d="M14 5.0625C14.1875 5 14.4375 5 14.6875 5C16.5625 5 18.125 6.5625 18.125 8.4375C18.125 10.3125 16.5625 11.875 14.6875 11.875L15 17.5H5L5.3125 11.875C3.4375 11.875 1.875 10.3125 1.875 8.4375C1.875 6.5625 3.4375 5 5.3125 5C5.5625 5 5.8125 5 6 5.0625" stroke="#272342" stroke-width="1.25" stroke-miterlimit="10" stroke-linecap="round" stroke-linejoin="round"/>
<path d="M14.375 6.875C14.375 4.4375 12.4375 2.5 10 2.5C7.5625 2.5 5.625 4.4375 5.625 6.875" stroke="#272342" stroke-width="1.25" stroke-miterlimit="10" stroke-linecap="round" stroke-linejoin="round"/>
<path d="M10 13.125V15" stroke="#272342" stroke-width="1.25" stroke-miterlimit="10" stroke-linecap="round" stroke-linejoin="round"/>
<path d="M7.8125 13.125L7.5 14.8125" stroke="#272342" stroke-width="1.25" stroke-miterlimit="10" stroke-linecap="round" stroke-linejoin="round"/>
<path d="M12.1875 13.125L12.5 14.8125" stroke="#272342" stroke-width="1.25" stroke-miterlimit="10" stroke-linecap="round" stroke-linejoin="round"/>
</svg>
