<svg width="32" height="32" viewBox="0 0 32 32" fill="none" xmlns="http://www.w3.org/2000/svg">
<path d="M24.0005 12.0001C24.0005 7.30012 19.9005 3.50012 15.1005 4.10012C11.6005 4.50012 8.70048 7.30012 8.10048 10.8001C7.70048 13.4001 8.60048 15.9001 10.2005 17.6001C11.4005 18.8001 12.0005 20.4001 12.0005 22.1001H20.0005C20.0005 20.5001 20.6005 18.8001 21.7005 17.7001C23.1005 16.1001 24.0005 14.2001 24.0005 12.0001Z" stroke="#7AC2C2" stroke-width="2" stroke-miterlimit="10" stroke-linecap="round" stroke-linejoin="round"/>
<path d="M20 25H12" stroke="#7AC2C2" stroke-width="2" stroke-miterlimit="10" stroke-linecap="round" stroke-linejoin="round"/>
<path d="M19 25.5C19 27.2 17.7 28.5 16 28.5C14.3 28.5 13 27.2 13 25.5" stroke="#7AC2C2" stroke-width="2" stroke-miterlimit="10" stroke-linecap="round" stroke-linejoin="round"/>
<path d="M18.5 15L16 22L12 11C14.4 12.8 17.6 12.8 20 11" stroke="#7AC2C2" stroke-width="2" stroke-miterlimit="10" stroke-linecap="round" stroke-linejoin="round"/>
</svg>
