<svg width="18" height="18" viewBox="0 0 18 18" fill="none" xmlns="http://www.w3.org/2000/svg">
<path d="M5.85672 1.5C3.82101 1.5 2.21387 3.10714 2.21387 5.08929V10.5V12.75C3.87458 11.3036 6.01744 10.5 8.26744 10.5H10.4103C12.3924 10.5 14.0532 8.89286 14.0532 6.91071V5.08929C13.9996 3.10714 12.3924 1.5 10.3567 1.5H5.85672Z" stroke="white" stroke-width="1.07143" stroke-miterlimit="10" stroke-linecap="round" stroke-linejoin="round"/>
<path d="M9.07157 5.25C7.03585 5.25 5.42871 6.85714 5.42871 8.83929V14.25V16.5C7.08943 15.0536 9.23228 14.25 11.4823 14.25H13.6251C15.6073 14.25 17.268 12.6429 17.268 10.6607V8.83929C17.2144 6.85714 15.6073 5.25 13.5716 5.25H9.07157Z" fill="white" stroke="white" stroke-width="1.07143" stroke-miterlimit="10" stroke-linecap="round" stroke-linejoin="round"/>
<rect x="7.57129" y="9" width="1.78571" height="1.78571" rx="0.892857" fill="#272342"/>
<rect x="10.4287" y="9" width="1.78571" height="1.78571" rx="0.892857" fill="#272342"/>
<rect x="13.2861" y="9" width="1.78571" height="1.78571" rx="0.892857" fill="#272342"/>
</svg>
