<svg width="16" height="16" viewBox="0 0 16 16" fill="none" xmlns="http://www.w3.org/2000/svg">
<path d="M11.0331 12.7667L11.2683 12.0545L10.9413 11.9465L10.6462 12.1242L11.0331 12.7667ZM12.7664 11.0334L12.1347 10.6292L11.9414 10.9312L12.0551 11.2712L12.7664 11.0334ZM13.6331 13.6254L13.3979 14.3376C13.6674 14.4266 13.9641 14.3559 14.1644 14.1548C14.3647 13.9537 14.4344 13.6568 14.3444 13.3876L13.6331 13.6254ZM10.6462 12.1242C9.87942 12.5858 8.61464 12.8754 7.56642 12.8754V14.3754C8.80794 14.3754 10.3598 14.0475 11.4199 13.4092L10.6462 12.1242ZM7.56642 12.8754C4.62963 12.8754 2.24976 10.4964 2.24976 7.56278H0.749756C0.749756 11.3258 3.80215 14.3754 7.56642 14.3754V12.8754ZM2.24976 7.56278C2.24976 4.6291 4.62965 2.25003 7.56642 2.25003V0.750031C3.80213 0.750031 0.749756 3.79977 0.749756 7.56278H2.24976ZM7.56642 2.25003C10.5032 2.25003 12.8831 4.6291 12.8831 7.56278H14.3831C14.3831 3.79977 11.3307 0.750031 7.56642 0.750031V2.25003ZM12.8831 7.56278C12.8831 8.68113 12.6327 9.85075 12.1347 10.6292L13.3982 11.4376C14.1048 10.3331 14.3831 8.847 14.3831 7.56278H12.8831ZM10.7979 13.4789L13.3979 14.3376L13.8683 12.9133L11.2683 12.0545L10.7979 13.4789ZM14.3444 13.3876L13.4777 10.7955L12.0551 11.2712L12.9218 13.8633L14.3444 13.3876Z" fill="#272342"/>
<circle cx="4.49976" cy="7.50003" r="1" fill="#272342"/>
<circle cx="7.49976" cy="7.50003" r="1" fill="#272342"/>
<circle cx="10.4998" cy="7.50003" r="1" fill="#272342"/>
</svg>
