<svg width="20" height="20" viewBox="0 0 20 20" fill="none" xmlns="http://www.w3.org/2000/svg">
<rect width="20" height="20" fill="white"/>
<path d="M8.75 4.375C7.18292 4.375 5.65521 4.86586 4.38142 5.77865C3.10762 6.69144 2.15174 7.98029 1.64802 9.4642C1.1443 10.9481 1.11805 12.5525 1.57295 14.0521C2.02785 15.5517 2.94104 16.8712 4.18429 17.8251C5.42753 18.7791 6.93837 19.3197 8.50461 19.371C10.0708 19.4223 11.6138 18.9816 12.9168 18.111C14.2198 17.2404 15.2173 15.9835 15.7693 14.5169C16.3213 13.0502 16.4 11.4475 15.9944 9.93386L8.75 11.875L8.75 4.375Z" stroke="#272342" stroke-width="1.25" stroke-linecap="round" stroke-linejoin="round"/>
<path d="M8.75 11.875L2.8125 7.5" stroke="#272342" stroke-width="1.25" stroke-linecap="round"/>
<path d="M18.4944 6.80886C18.0671 5.21411 17.1255 3.80492 15.8157 2.79985C14.5059 1.79478 12.901 1.25 11.25 1.25L11.25 8.75L18.4944 6.80886Z" stroke="#272342" stroke-width="1.25" stroke-linecap="round" stroke-linejoin="round"/>
</svg>
