<svg width="16" height="16" viewBox="0 0 16 16" fill="none" xmlns="http://www.w3.org/2000/svg">
<path fill-rule="evenodd" clip-rule="evenodd" d="M12.2621 14.4626C12.382 14.5425 12.5426 14.4565 12.5426 14.3124V2.87063C12.5426 2.07352 11.8964 1.42733 11.0993 1.42733L4.65253 1.42733C3.85541 1.42733 3.20923 2.07352 3.20923 2.87063V14.3124C3.20923 14.4565 3.36982 14.5425 3.48972 14.4626L7.4756 11.8053C7.718 11.6437 8.03379 11.6437 8.27619 11.8053L12.2621 14.4626Z" fill="white"/>
<path d="M7.4756 11.8053L7.89162 12.4293L7.4756 11.8053ZM8.27619 11.8053L7.86017 12.4293L8.27619 11.8053ZM3.48972 14.4626L3.90574 15.0866L3.48972 14.4626ZM12.2621 14.4626L11.846 15.0866L12.2621 14.4626ZM13.2926 14.3124V2.87063H11.7926V14.3124H13.2926ZM2.45923 2.87063V14.3124H3.95923V2.87063H2.45923ZM3.90574 15.0866L7.89162 12.4293L7.05957 11.1813L3.07369 13.8385L3.90574 15.0866ZM7.86017 12.4293L11.846 15.0866L12.6781 13.8385L8.69222 11.1813L7.86017 12.4293ZM11.0993 0.67733L4.65253 0.67733L4.65253 2.17733L11.0993 2.17733L11.0993 0.67733ZM7.89162 12.4293C7.8821 12.4357 7.86969 12.4357 7.86017 12.4293L8.69222 11.1813C8.19789 10.8517 7.5539 10.8517 7.05957 11.1813L7.89162 12.4293ZM2.45923 14.3124C2.45923 15.0556 3.28743 15.4988 3.90574 15.0866L3.07369 13.8385C3.45221 13.5862 3.95923 13.8575 3.95923 14.3124H2.45923ZM3.95923 2.87063C3.95923 2.48773 4.26963 2.17733 4.65253 2.17733L4.65253 0.67733C3.4412 0.67733 2.45923 1.6593 2.45923 2.87063H3.95923ZM13.2926 2.87063C13.2926 1.6593 12.3106 0.67733 11.0993 0.67733L11.0993 2.17733C11.4822 2.17733 11.7926 2.48773 11.7926 2.87063H13.2926ZM11.7926 14.3124C11.7926 13.8575 12.2996 13.5862 12.6781 13.8385L11.846 15.0866C12.4644 15.4988 13.2926 15.0556 13.2926 14.3124H11.7926Z" fill="#272342"/>
</svg>
