<svg width="16" height="16" viewBox="0 0 16 16" fill="none" xmlns="http://www.w3.org/2000/svg">
<path d="M11.0257 2.31241V2.31243H11.0301C12.7359 2.31243 14.2498 3.87508 14.2498 5.97309C14.2498 6.83908 13.9126 7.7438 13.338 8.64857C12.7654 9.55005 11.9865 10.4049 11.1777 11.1559C9.85615 12.3832 8.50953 13.2834 8.00082 13.6074C7.49433 13.2811 6.1464 12.3697 4.82311 11.135C4.01369 10.3798 3.23404 9.52249 2.66101 8.62284C2.08542 7.71918 1.74976 6.82243 1.74976 5.97309C1.74976 3.87507 3.26359 2.31243 4.96935 2.31243V2.31249L4.97919 2.31236C5.8906 2.30041 6.784 2.74483 7.39918 3.56721L7.99582 4.36481L8.59746 3.57098C9.21805 2.75217 10.1118 2.30699 11.0257 2.31241Z" fill="white" stroke="#272342" stroke-width="1.5"/>
</svg>
