<svg width="96" height="67" viewBox="0 0 96 67" fill="none" xmlns="http://www.w3.org/2000/svg">
<path d="M8.15116 35.2233C8.16619 35.2232 8.24136 35.223 8.37666 35.2225C9.29375 35.2343 10.1131 35.239 10.8347 35.2364L12.222 25.7379C13.558 16.5928 16.308 12.0054 20.4722 11.9758C21.2991 11.9729 22.0211 12.0981 22.6384 12.3515C24.2643 13.0073 25.081 14.4101 25.0886 16.5598C25.0914 17.3566 24.9966 18.1913 24.8042 19.0639C24.1237 22.2083 22.3462 25.4843 19.4717 28.892C17.6603 31.0482 15.9671 32.6402 14.3921 33.668L14.1721 35.2247L16.4948 35.2166C16.8706 35.2152 17.2091 35.2892 17.5103 35.4385C18.0675 35.7222 18.3473 36.1948 18.3496 36.8562C18.3506 37.1268 18.2839 37.3901 18.1495 37.6462C17.8056 38.2036 17.2504 38.4837 16.4837 38.4864L13.71 38.4961L12.6763 45.9414C16.6045 42.9359 18.7035 41.3124 18.9733 41.0709C19.5729 40.5878 20.1509 40.3452 20.7071 40.3432C20.9025 40.3426 21.1057 40.4095 21.3167 40.5441C21.7537 40.8432 21.973 41.2258 21.9747 41.6918C21.962 42.3684 21.551 43.0689 20.7418 43.7933C19.1529 45.1219 16.2519 47.4171 12.039 50.6792L10.9829 58.1696C10.7626 59.6737 10.2031 60.8633 9.30411 61.7384C8.3002 62.6891 7.06161 63.167 5.58834 63.1721C4.22031 63.1769 3.0083 62.6625 1.95232 61.6289C0.896347 60.5953 0.366063 59.4246 0.361472 58.1167C0.357038 56.8539 0.646521 55.808 1.22992 54.9791C1.574 54.4968 2.24831 53.8706 3.25285 53.1003C3.26783 53.0853 3.32032 53.0475 3.41031 52.987C4.38489 52.247 6.19912 50.8726 8.85301 48.8638L10.3726 38.5078L8.16272 38.5156C8.02742 38.5161 7.89961 38.509 7.77929 38.4944C6.8017 38.3776 6.31124 37.8456 6.30792 36.8985C6.30713 36.673 6.33645 36.4624 6.3959 36.2668C6.64904 35.5743 7.23413 35.2265 8.15116 35.2233ZM20.5293 15.3807C19.2516 15.4303 18.1654 16.4939 17.2707 18.5717C16.4954 20.4085 15.822 23.4251 15.2504 27.6215C15.1627 28.3434 15.0967 28.8247 15.0525 29.0654C16.0563 28.0997 17.0968 26.8633 18.174 25.3562C20.5975 21.9802 21.8052 19.1271 21.7971 16.7969C21.7966 16.6766 21.7661 16.5339 21.7054 16.3688C21.4775 15.7081 21.0855 15.3787 20.5293 15.3807ZM7.75187 56.3769C7.75187 56.3769 7.87643 55.4594 8.12556 53.6244C6.56626 54.8176 5.74167 55.4594 5.65178 55.5499C4.57218 56.3505 4.02615 57.1191 4.01371 57.8558C4.0146 58.1114 4.06055 58.3517 4.15154 58.5769C4.40943 59.2375 4.88414 59.5666 5.57568 59.5641C5.84628 59.5632 6.10168 59.5172 6.3419 59.4261C7.07748 59.1229 7.54747 58.1065 7.75187 56.3769Z" fill="#272342"/>
<path d="M46.4184 39.331C46.4184 38.8198 46.4485 38.2786 46.5086 37.7074C46.8243 35.1366 47.6361 32.8516 48.9441 30.8521C50.5376 28.4016 52.4544 27.1764 54.6943 27.1764C55.4761 27.1764 56.2353 27.3192 56.9719 27.6049L58.7985 14.616C59.039 12.8571 59.6704 11.9701 60.6927 11.9551C60.8581 11.9551 61.0234 11.9701 61.1888 12.0002C61.8803 12.1655 62.2261 12.8195 62.2261 13.962C62.2261 14.4281 61.9029 17.0739 61.2565 21.8997C59.7982 32.8891 59.0691 38.9326 59.0691 40.03C59.0691 40.7216 59.2119 41.368 59.4975 41.9693C59.9185 42.8713 60.4822 43.3223 61.1888 43.3223C61.3241 43.3223 61.4669 43.3073 61.6173 43.2772C62.0683 43.187 62.7222 42.8413 63.5791 42.2399C64.421 41.6386 65.09 41.3379 65.5861 41.3379C65.7966 41.3379 65.992 41.4131 66.1724 41.5634C66.5332 41.8641 66.7136 42.2475 66.7136 42.7135C66.6535 43.4952 66.0672 44.3146 64.9547 45.1715C63.6017 46.1336 62.166 46.6147 60.6476 46.6147C58.7684 46.5996 57.3478 45.6525 56.3856 43.7734C56.1601 44.044 55.9045 44.307 55.6189 44.5626C54.1757 45.8856 52.7099 46.547 51.2216 46.547C50.2745 46.547 49.4552 46.3065 48.7637 45.8254C47.2002 44.743 46.4184 42.5782 46.4184 39.331ZM54.4463 40.8644C54.6417 40.5787 54.8823 39.8346 55.1679 38.6319C55.7692 36.0311 56.2278 33.3026 56.5435 30.4462C56.1977 30.2808 55.8369 30.1756 55.4611 30.1305C55.1905 30.1305 54.9123 30.1681 54.6267 30.2432C53.2286 30.6341 52.0485 31.927 51.0863 34.1219C50.2294 36.0913 49.801 38.0682 49.801 40.0526C49.801 40.2179 49.8085 40.3833 49.8235 40.5487C49.8987 42.2174 50.3647 43.0517 51.2216 43.0517C51.6576 43.0367 52.2063 42.7962 52.8678 42.3301C53.5744 41.819 54.1005 41.3304 54.4463 40.8644Z" fill="#272342"/>
<path d="M68.1134 29.0824C68.0901 29.5177 67.9649 30.452 67.7377 31.8851C67.0444 36.1236 66.67 38.7608 66.6146 39.7966C66.5776 40.4872 66.6857 41.1403 66.9389 41.756C67.311 42.6792 67.8499 43.1597 68.5555 43.1974C68.7056 43.2055 68.864 43.1989 69.0307 43.1777C69.4717 43.0959 70.1211 42.7768 70.9789 42.2205C71.8216 41.6634 72.4907 41.3981 72.9861 41.4245C73.1963 41.4358 73.4024 41.5221 73.6045 41.6834C74.0088 42.0062 74.1977 42.4152 74.1712 42.9106C74.0702 43.673 73.4339 44.452 72.2623 45.2474C70.8298 46.1343 69.3554 46.5372 67.8392 46.4562C66.5632 46.3879 65.5285 45.8885 64.7352 44.9578C63.5465 43.5393 63.0308 41.3589 63.1881 38.4165C63.2419 37.4107 63.5497 35.455 64.1116 32.5493C64.3648 31.1928 64.5462 30.1939 64.6558 29.5524C64.678 29.4181 64.7002 29.2838 64.7225 29.1494C65.043 27.6611 65.6986 26.9434 66.6894 26.9964C66.8545 27.0052 67.0188 27.0291 67.1824 27.0679C67.8641 27.27 68.1744 27.9415 68.1134 29.0824ZM65.8619 23.0454C65.8763 22.7752 65.95 22.5232 66.083 22.2894C66.4145 21.72 66.9181 21.4534 67.5936 21.4895C67.8638 21.5039 68.1158 21.5776 68.3496 21.7106C68.919 22.0421 69.1856 22.5457 69.1495 23.2212C69.1351 23.4914 69.0614 23.7434 68.9284 23.9772C68.5969 24.5466 68.0933 24.8132 67.4178 24.7771C67.1476 24.7627 66.8956 24.689 66.6618 24.556C66.0924 24.2245 65.8258 23.7209 65.8619 23.0454Z" fill="#272342"/>
<path d="M70.3828 39.6016C70.3828 39.0904 70.4128 38.5492 70.473 37.978C70.7887 35.4072 71.6005 33.1222 72.9084 31.1227C74.5019 28.6723 76.4187 27.447 78.6587 27.447C79.26 27.447 79.8388 27.5222 80.395 27.6725C82.3794 28.2438 83.3717 29.6419 83.3717 31.8669C83.3717 32.0322 83.3641 32.2051 83.3491 32.3855C83.1988 34.4 82.2968 36.0913 80.6431 37.4593C79.0195 38.8123 77.1328 39.4888 74.983 39.4888C74.5771 39.4888 74.1787 39.4512 73.7878 39.3761C73.7578 39.6016 73.7427 39.9173 73.7427 40.3232C73.7427 41.1951 73.8931 41.8716 74.1937 42.3527C74.5996 42.9691 75.434 43.3299 76.6968 43.4351C77.253 43.4351 77.8018 43.375 78.343 43.2547C79.2901 43.0292 80.4101 42.4955 81.7029 41.6536C82.5448 41.0974 83.1386 40.8193 83.4844 40.8193C83.6798 40.8193 83.8828 40.8794 84.0933 40.9997C84.5743 41.2853 84.8149 41.6987 84.8149 42.2399C84.8149 42.4203 84.7773 42.6158 84.7021 42.8262C84.2962 43.8034 83.0785 44.728 81.049 45.5999C79.1698 46.4117 77.5161 46.8176 76.0879 46.8176C75.5467 46.8176 75.0431 46.7725 74.5771 46.6823C71.7809 46.1111 70.3828 43.7508 70.3828 39.6016ZM77.6214 30.9874C76.2533 31.9044 75.1784 33.6483 74.3967 36.219C74.7725 36.3092 75.1333 36.3543 75.4791 36.3543C76.7269 36.3543 77.8168 35.971 78.7489 35.2043C79.7862 34.3624 80.3048 33.3627 80.3048 32.2051C80.3048 31.0475 79.9365 30.4612 79.1999 30.4462C78.6737 30.4612 78.1475 30.6416 77.6214 30.9874Z" fill="#272342"/>
<path d="M87.3559 45.2421C87.3559 44.8513 87.4536 44.4904 87.649 44.1597C88.0549 43.4982 88.6337 43.1675 89.3854 43.1675C89.7763 43.1675 90.1371 43.2727 90.4678 43.4832C91.1293 43.8741 91.46 44.4604 91.46 45.2421C91.46 45.618 91.3548 45.9712 91.1443 46.302C90.7384 46.9484 90.1521 47.2716 89.3854 47.2716C89.0096 47.2716 88.6487 47.1664 88.303 46.9559C87.6716 46.55 87.3559 45.9788 87.3559 45.2421ZM88.6638 37.1241C88.6638 37.1241 89.6635 29.6524 91.663 14.7092C91.7532 14.0778 91.9636 13.5817 92.2944 13.2209C92.6101 12.8901 92.9934 12.7248 93.4444 12.7248C93.9105 12.7248 94.2713 12.8375 94.5268 13.063C94.8726 13.3637 95.0455 13.8072 95.0455 14.3935C95.0455 14.5288 95.038 14.6641 95.0229 14.7994L92.362 37.0339C92.2868 37.6051 92.1365 38.0937 91.911 38.4996C91.475 39.2363 90.9263 39.6046 90.2648 39.6046C90.0995 39.6046 89.9416 39.5745 89.7913 39.5144C89.0396 39.2287 88.6638 38.432 88.6638 37.1241Z" fill="#272342"/>
<path d="M25.8312 27.5598C26.3574 27.5748 26.8535 27.6274 27.3195 27.7176C29.6347 28.2137 31.0553 30.0177 31.5815 33.1297C31.8671 32.9643 32.3407 32.6561 33.0022 32.2051C33.9042 31.5887 34.5882 31.2806 35.0542 31.2806C35.2797 31.2806 35.4977 31.3482 35.7082 31.4835C36.1742 31.7842 36.4072 32.1901 36.4072 32.7012C36.3922 33.2124 36.0615 33.7761 35.415 34.3925C34.498 35.2344 33.3103 35.9484 31.8521 36.5347C31.8371 38.88 31.4838 40.8644 30.7922 42.488C29.6647 45.1339 27.8156 46.4568 25.2449 46.4568C24.3279 46.4568 23.4108 46.1637 22.4938 45.5774C20.3741 44.1793 19.3142 41.6612 19.3142 38.0231C19.3142 35.8282 19.6825 33.8287 20.4192 32.0247C21.5767 29.1834 23.3807 27.6951 25.8312 27.5598ZM28.65 37.121C28.0637 37.106 27.5074 37.0459 26.9813 36.9406C24.9968 36.5197 23.719 35.4674 23.1477 33.7836C22.7569 35.0464 22.5614 36.422 22.5614 37.9103C22.5614 38.6319 22.6291 39.331 22.7644 40.0075C23.1853 42.0671 24.1023 43.0968 25.5155 43.0968C25.9815 43.0968 26.4025 42.954 26.7783 42.6684C27.8757 41.8265 28.4996 39.9774 28.65 37.121ZM28.3117 34.0542C28.3117 34.0542 28.4169 34.0542 28.6274 34.0542C28.4019 31.9946 27.8607 30.9573 27.0038 30.9423C26.9286 30.9423 26.8535 30.9498 26.7783 30.9649C26.4476 31.0851 26.2822 31.3332 26.2822 31.709C26.2822 32.0397 26.3348 32.363 26.4401 32.6787C26.7708 33.5957 27.3947 34.0542 28.3117 34.0542Z" fill="#272342"/>
<path d="M39.5587 27.5598C40.0849 27.5748 40.581 27.6274 41.047 27.7176C43.3622 28.2137 44.7829 30.0177 45.309 33.1297C45.5947 32.9643 46.0682 32.6561 46.7297 32.2051C47.6317 31.5887 48.3157 31.2806 48.7818 31.2806C49.0073 31.2806 49.2252 31.3482 49.4357 31.4835C49.9017 31.7842 50.1348 32.1901 50.1348 32.7012C50.1197 33.2124 49.789 33.7761 49.1426 34.3925C48.2255 35.2344 47.0379 35.9484 45.5796 36.5347C45.5646 38.88 45.2113 40.8644 44.5198 42.488C43.3923 45.1339 41.5432 46.4568 38.9724 46.4568C38.0554 46.4568 37.1383 46.1637 36.2213 45.5774C34.1016 44.1793 33.0417 41.6612 33.0417 38.0231C33.0417 35.8282 33.4101 33.8287 34.1467 32.0247C35.3043 29.1834 37.1083 27.6951 39.5587 27.5598ZM42.3775 37.121C41.7912 37.106 41.235 37.0459 40.7088 36.9406C38.7244 36.5197 37.4465 35.4674 36.8753 33.7836C36.4844 35.0464 36.289 36.422 36.289 37.9103C36.289 38.6319 36.3566 39.331 36.4919 40.0075C36.9128 42.0671 37.8299 43.0968 39.243 43.0968C39.7091 43.0968 40.13 42.954 40.5058 42.6684C41.6033 41.8265 42.2272 39.9774 42.3775 37.121ZM42.0393 34.0542C42.0393 34.0542 42.1445 34.0542 42.355 34.0542C42.1295 31.9946 41.5883 30.9573 40.7313 30.9423C40.6562 30.9423 40.581 30.9498 40.5058 30.9649C40.1751 31.0851 40.0097 31.3332 40.0097 31.709C40.0097 32.0397 40.0624 32.363 40.1676 32.6787C40.4983 33.5957 41.1222 34.0542 42.0393 34.0542Z" fill="#272342"/>
<path d="M29.2575 60.4313C29.1945 60.4313 29.1411 60.4093 29.097 60.3652C29.053 60.3212 29.031 60.2677 29.031 60.2048V54.0616C29.031 53.9924 29.0498 53.9358 29.0876 53.8917C29.1316 53.8477 29.1882 53.8257 29.2575 53.8257H29.9935C30.113 53.8257 30.2043 53.8792 30.2672 53.9861L32.966 58.1759V54.0616C32.966 53.9924 32.9849 53.9358 33.0226 53.8917C33.0667 53.8477 33.1233 53.8257 33.1925 53.8257H34.004C34.0732 53.8257 34.1299 53.8477 34.1739 53.8917C34.2179 53.9358 34.2399 53.9924 34.2399 54.0616V60.1954C34.2399 60.2646 34.2179 60.3212 34.1739 60.3652C34.1299 60.4093 34.0764 60.4313 34.0135 60.4313H33.268C33.1422 60.4313 33.0478 60.3778 32.9849 60.2709L30.2955 56.1754V60.2048C30.2955 60.2677 30.2735 60.3212 30.2294 60.3652C30.1917 60.4093 30.1382 60.4313 30.069 60.4313H29.2575ZM35.5519 60.4313C35.489 60.4313 35.4355 60.4093 35.3915 60.3652C35.3475 60.3212 35.3254 60.2677 35.3254 60.2048V54.0616C35.3254 53.9924 35.3443 53.9358 35.3821 53.8917C35.4261 53.8477 35.4827 53.8257 35.5519 53.8257H39.7134C39.7826 53.8257 39.8393 53.8477 39.8833 53.8917C39.9273 53.9358 39.9494 53.9924 39.9494 54.0616V54.6939C39.9494 54.7631 39.9273 54.8197 39.8833 54.8637C39.8393 54.9015 39.7826 54.9203 39.7134 54.9203H36.6183V56.5717H39.5058C39.575 56.5717 39.6317 56.5937 39.6757 56.6378C39.7197 56.6818 39.7418 56.7384 39.7418 56.8076V57.4021C39.7418 57.4713 39.7197 57.528 39.6757 57.572C39.6317 57.6097 39.575 57.6286 39.5058 57.6286H36.6183V59.3366H39.7889C39.8581 59.3366 39.9148 59.3587 39.9588 59.4027C40.0028 59.4404 40.0248 59.4939 40.0248 59.5631V60.2048C40.0248 60.274 40.0028 60.3306 39.9588 60.3747C39.9148 60.4124 39.8581 60.4313 39.7889 60.4313H35.5519ZM42.5071 60.4313C42.4442 60.4313 42.3907 60.4093 42.3467 60.3652C42.3026 60.3212 42.2806 60.2677 42.2806 60.2048V55.0053H40.5349C40.472 55.0053 40.4185 54.9832 40.3744 54.9392C40.3304 54.8952 40.3084 54.8385 40.3084 54.7693V54.0616C40.3084 53.9924 40.3273 53.9358 40.365 53.8917C40.409 53.8477 40.4657 53.8257 40.5349 53.8257H45.3569C45.4261 53.8257 45.4828 53.8477 45.5268 53.8917C45.5708 53.9358 45.5929 53.9924 45.5929 54.0616V54.7693C45.5929 54.8385 45.5708 54.8952 45.5268 54.9392C45.4828 54.9832 45.4261 55.0053 45.3569 55.0053H43.6206V60.2048C43.6206 60.2677 43.5986 60.3212 43.5546 60.3652C43.5168 60.4093 43.4633 60.4313 43.3941 60.4313H42.5071ZM47.2579 60.4313C47.0755 60.4313 46.9622 60.3369 46.9182 60.1482L45.8047 54.0993L45.7952 54.0239C45.7952 53.9672 45.8141 53.9201 45.8518 53.8823C45.8896 53.8446 45.9368 53.8257 45.9934 53.8257H46.8427C46.9245 53.8257 46.9842 53.8414 47.022 53.8729C47.0597 53.898 47.0849 53.9452 47.0975 54.0144L47.8807 58.2609L48.7206 55.5243C48.7835 55.367 48.8873 55.2884 49.032 55.2884H49.551C49.6328 55.2884 49.6988 55.3135 49.7491 55.3638C49.7995 55.4079 49.8341 55.4614 49.8529 55.5243L50.7022 58.2609L51.476 54.0144C51.4949 53.8886 51.583 53.8257 51.7403 53.8257H52.5895C52.6399 53.8257 52.6839 53.8446 52.7217 53.8823C52.7594 53.9201 52.7783 53.9672 52.7783 54.0239C52.7783 54.0553 52.7751 54.0805 52.7688 54.0993L51.6553 60.1482C51.6427 60.2363 51.605 60.3055 51.5421 60.3558C51.4855 60.4061 51.41 60.4313 51.3156 60.4313H50.6739C50.5858 60.4313 50.5135 60.4093 50.4569 60.3652C50.4003 60.3149 50.3625 60.2583 50.3436 60.1954L49.2867 57.0624L48.2299 60.1954C48.1795 60.3526 48.0694 60.4313 47.8996 60.4313H47.2579ZM55.9734 60.5256C55.1116 60.5256 54.4416 60.3086 53.9634 59.8745C53.4853 59.4404 53.2337 58.7956 53.2085 57.94C53.2022 57.7576 53.1991 57.4902 53.1991 57.1379C53.1991 56.7793 53.2022 56.5088 53.2085 56.3264C53.2337 55.4897 53.4916 54.848 53.9823 54.4013C54.473 53.9547 55.1367 53.7313 55.9734 53.7313C56.8038 53.7313 57.4644 53.9547 57.9551 54.4013C58.4521 54.848 58.7132 55.4897 58.7383 56.3264C58.7509 56.6913 58.7572 56.9618 58.7572 57.1379C58.7572 57.3078 58.7509 57.5751 58.7383 57.94C58.7132 58.7956 58.4584 59.4404 57.974 59.8745C57.4959 60.3086 56.829 60.5256 55.9734 60.5256ZM55.9734 59.431C56.3949 59.431 56.7284 59.3052 56.9737 59.0535C57.2191 58.8019 57.3512 58.415 57.37 57.8928C57.3826 57.5154 57.3889 57.2606 57.3889 57.1285C57.3889 56.9838 57.3826 56.729 57.37 56.3641C57.3512 55.8483 57.2159 55.4645 56.9643 55.2129C56.7126 54.9549 56.3823 54.826 55.9734 54.826C55.5582 54.826 55.2248 54.9549 54.9732 55.2129C54.7215 55.4645 54.5894 55.8483 54.5768 56.3641C54.5705 56.5466 54.5674 56.8013 54.5674 57.1285C54.5674 57.4493 54.5705 57.7041 54.5768 57.8928C54.5894 58.4087 54.7184 58.7956 54.9637 59.0535C55.2154 59.3052 55.5519 59.431 55.9734 59.431ZM59.8359 60.4313C59.773 60.4313 59.7195 60.4093 59.6755 60.3652C59.6315 60.3212 59.6095 60.2677 59.6095 60.2048V54.0616C59.6095 53.9924 59.6283 53.9358 59.6661 53.8917C59.7101 53.8477 59.7667 53.8257 59.8359 53.8257H62.28C63.0538 53.8257 63.6577 54.005 64.0918 54.3636C64.5322 54.7222 64.7524 55.2317 64.7524 55.8923C64.7524 56.3515 64.6423 56.7384 64.4221 57.053C64.2019 57.3612 63.8936 57.5846 63.4973 57.723L64.8656 60.1293C64.8845 60.1671 64.8939 60.2017 64.8939 60.2331C64.8939 60.2897 64.8719 60.3369 64.8279 60.3747C64.7901 60.4124 64.7461 60.4313 64.6958 60.4313H63.8276C63.7269 60.4313 63.6483 60.4093 63.5917 60.3652C63.5351 60.3149 63.4847 60.252 63.4407 60.1765L62.2328 57.94H60.94V60.2048C60.94 60.2677 60.918 60.3212 60.8739 60.3652C60.8299 60.4093 60.7733 60.4313 60.7041 60.4313H59.8359ZM62.2517 56.8643C62.6291 56.8643 62.9122 56.7825 63.101 56.6189C63.2897 56.4491 63.3841 56.2037 63.3841 55.8829C63.3841 55.562 63.2897 55.3167 63.101 55.1468C62.9122 54.9707 62.6291 54.8826 62.2517 54.8826H60.94V56.8643H62.2517ZM65.8171 60.4313C65.7542 60.4313 65.7007 60.4093 65.6567 60.3652C65.6126 60.3212 65.5906 60.2677 65.5906 60.2048V54.0616C65.5906 53.9924 65.6095 53.9358 65.6472 53.8917C65.6913 53.8477 65.7479 53.8257 65.8171 53.8257H66.6664C66.7356 53.8257 66.7922 53.8477 66.8362 53.8917C66.8803 53.9358 66.9023 53.9924 66.9023 54.0616V56.2698L69.0066 53.9955C69.101 53.8823 69.2237 53.8257 69.3747 53.8257H70.3372C70.3875 53.8257 70.4316 53.8446 70.4693 53.8823C70.5133 53.9201 70.5354 53.9672 70.5354 54.0239C70.5354 54.0679 70.5196 54.1056 70.4882 54.1371L67.9214 56.9869L70.6769 60.1104C70.7021 60.1545 70.7146 60.1954 70.7146 60.2331C70.7146 60.2897 70.6958 60.3369 70.658 60.3747C70.6203 60.4124 70.5762 60.4313 70.5259 60.4313H69.5351C69.403 60.4313 69.3086 60.4061 69.252 60.3558C69.1954 60.2992 69.1639 60.2677 69.1576 60.2614L66.9023 57.7702V60.2048C66.9023 60.2677 66.8803 60.3212 66.8362 60.3652C66.7922 60.4093 66.7356 60.4313 66.6664 60.4313H65.8171Z" fill="#7AC2C2"/>
</svg>
